<svg xmlns="http://www.w3.org/2000/svg" version="1.1" xmlns:xlink="http://www.w3.org/1999/xlink" xmlns:svgjs="http://svgjs.dev/svgjs" viewBox="0 0 1920 1080" style="overflow: hidden; height: 85vh;" class="overflow-hidden rounded-md drop-shadow-lg transition duration-300"><rect width="1920" height="1080" fill="#e0eaff"/><g clip-path="url(&quot;#SvgjsClipPath1445&quot;)"><g transform="matrix(7.04171909509728e-17,1.15,-1.15,7.04171909509728e-17,1550.1724967956543,-528.5483713150024)"><path d="M0,-1080C-10.266476840398694,-1002.7792281082162,-63.622642064865516,-770.9463502074516,-61.598861042392166,-616.6753686492971C-59.575080019918815,-462.40438709114255,2.2910119221679235,-310.4074152676577,12.142686134840105,-154.37411065107295C21.994360347512284,1.6591939655117756,-8.523461325480543,154.11404283266097,-2.4888157663590817,319.52445905021136C3.5458297927623788,484.93487526776175,57.61106952756262,677.6699951035084,48.350559489568866,838.0883866542295C39.09004945157511,998.5067782049505,-48.23288030198052,1141.3215198577977,-58.0518759943216,1282.0348083545377C-67.87087168666267,1422.7480968512778,-20.238727330197843,1536.0405856937589,-10.563414664477577,1682.3681176346693C-0.8881019987573104,1828.6956495755796,-1.7605691107462629,2080.3946862724447,0,2160L 1920 2160 L 1920 -1080 Z" fill="url(&quot;#SvgjsLinearGradient1443&quot;)"/><path d="M960,-1080C969.1674296527442,-969.5980671624063,1022.4882179220109,-636.792607042323,1015.0045779164655,-417.588402974438C1007.52093791092,-198.38419890655305,923.3311639780029,30.543103922466628,915.098159966727,235.22522440730967C906.8651559554512,439.9073448921527,960.972292153194,596.7942258305142,965.6065538488106,810.5043199346203C970.2408155444272,1024.2144140387263,943.8381557818949,1292.5698423543831,942.9037301404264,1517.4857890319463C941.969304498958,1742.4017357095095,957.150621690071,2052.914298171991,960,2160L 1920 2160 L 1920 -1080 Z" fill="url(&quot;#SvgjsLinearGradient1444&quot;)"/></g></g><defs><linearGradient x1="0.1" y1="0" x2="0" y2="1" id="SvgjsLinearGradient1443"><stop stop-color="#e0eaff" offset="0"/><stop stop-color="#e0efff" offset="0"/></linearGradient><linearGradient x1="0.1" y1="0" x2="0" y2="1" id="SvgjsLinearGradient1444"><stop stop-color="#f6f9ff" offset="0"/><stop stop-color="#f6faff" offset="0.5"/></linearGradient><clipPath id="SvgjsClipPath1445"><rect width="1920" height="1080"/></clipPath></defs></svg>